# xmcd
#
# Track frame offsets:
#	150
#	13859
#	28112
#	42363
#	55756
#	69914
#	85141
#	99317
#	111620
#	126847
#	141098
#	153921
#	166884
#	182185
#	196617
#	220519
#
# Disc length: 2955 seconds
#
# Revision: 1
# Processed by: cddbd v1.5.2PL0 Copyright (c) Steve Scherf et al.
# Submitted via: audiograbber 1.83.01
#
DISCID=d30b8910
DTITLE=Tex Ritter - CB90222
DYEAR=2004
DGENRE=Karaoke
TTITLE0=I'm wastin' My Tears On You
TTITLE1=There's A New Moon Over My Shoulder
TTITLE2=Jealous Heart
TTITLE3=You Two Timed Me One Time Too Often
TTITLE4=You Will Have To Pay
TTITLE5=Long Time Gone
TTITLE6=When You Leave Don't Slam the door
TTITLE7=Have I Told You Lately That I Love You
TTITLE8=Rye Whiskey
TTITLE9=Deck Of Cards
TTITLE10=Rock And Rye
TTITLE11=Daddy's Last Letter
TTITLE12=I Dreamed Of A hillbilly Heaven
TTITLE13=Just Beyond The Moon
TTITLE14=Christmas Carols By The Old Corral
TTITLE15=Data Track
EXTD=
EXTT0=
EXTT1=
EXTT2=
EXTT3=
EXTT4=
EXTT5=
EXTT6=
EXTT7=
EXTT8=
EXTT9=
EXTT10=
EXTT11=
EXTT12=
EXTT13=
EXTT14=
EXTT15=
PLAYORDER=
